General
Complete name                    : Antz.mkv
Format                           : Matroska
File size                        : 1.03 GiB
Duration                         : 1h 19mn
Overall bit rate                 : 1 847 Kbps
Writing application              : HandBrake 0.9.4

Video
ID                               : 1
Format                           : AVC
Duration                         : 1h 19mn
Bit rate                         : 1 042 Kbps
Width                            : 716 pixels
Height                           : 576 pixels
Display aspect ratio             : 16:9
Frame rate                       : 25.000 fps
Resolution                       : 8 bits
Colorimetry                      : 4:2:0
Scan type                        : Progressive
Bits/(Pixel*Frame)               : 0.101
Stream size                      : 593 MiB (56%)
Writing library                  : x264 core 79

Audio #1
ID                               : 2
Format                           : MPEG Audio
Mode                             : Joint stereo
Codec ID/Hint                    : MP3
Bit rate                         : 128 Kbps
Channel(s)                       : 2 channels
Sampling rate                    : 48.0 KHz
Stream size                      : 72.8 MiB (7%)
Writing library                  : LAME3.98
Language                         : English

Audio #2
ID                               : 3
Format                           : MPEG Audio
Mode                             : Joint stereo
Codec ID/Hint                    : MP3
Bit rate                         : 128 Kbps
Channel(s)                       : 2 channels
Sampling rate                    : 48.0 KHz
Stream size                      : 72.8 MiB (7%)
Writing library                  : LAME3.98
Language                         : Swedish

Audio #3
ID                               : 4
Format                           : MPEG Audio
Mode                             : Joint stereo
Codec ID                         : A_MPEG/L3
Codec ID/Hint                    : MP3
Bit rate                         : 128 Kbps
Channel(s)                       : 2 channels
Sampling rate                    : 48.0 KHz
Stream size                      : 72.8 MiB (7%)
Writing library                  : LAME3.98
Language                         : Danish

Audio #4
ID                               : 5
Format                           : MPEG Audio
Mode                             : Joint stereo
Codec ID/Hint                    : MP3
Bit rate                         : 128 Kbps
Channel(s)                       : 2 channels
Sampling rate                    : 48.0 KHz
Stream size                      : 72.8 MiB (7%)
Writing library                  : LAME3.98
Language                         : Norwegian

Audio #5
ID                               : 6
Format                           : MPEG Audio
Mode                             : Joint stereo
Codec ID/Hint                    : MP3
Bit rate                         : 128 Kbps
Channel(s)                       : 2 channels
Sampling rate                    : 48.0 KHz
Stream size                      : 72.8 MiB (7%)
Writing library                  : LAME3.98
Language                         : Finnish

Audio #6.........................: Directors Commentary !
ID                               : 7
Format                           : MPEG Audio
Mode                             : Joint stereo
Codec ID/Hint                    : MP3
Bit rate                         : 128 Kbps
Channel(s)                       : 2 channels
Sampling rate                    : 48.0 KHz
Stream size                      : 72.8 MiB (7%)
Writing library                  : LAME3.98

Text #1
Language                         : English

Text #2
Language                         : Swedish

Text #3
Language                         : Danish

Text #4
Language                         : Norwegian

Text #5
Language                         : Finnish

Menu
00:00:00.000                     : Chapter 1
00:00:23.440                     : Chapter 2
00:00:48.280                     : Chapter 3
00:06:07.000                     : Chapter 4

